<?xml version="1.0" encoding="UTF-8"?><svg id="Layer_1" xmlns="http://www.w3.org/2000/svg" xmlns:xlink="http://www.w3.org/1999/xlink" viewBox="0 0 572 122.87"><defs><style>.cls-1{fill:none;}.cls-2{clip-path:url(#clippath);}.cls-3{fill:#1a1a1a;}</style><clipPath id="clippath"><rect class="cls-1" x="0" width="572" height="122.87"/></clipPath></defs><g class="cls-2"><path class="cls-3" d="M42.62,55.5c-.13-7.27-5.87-13.52-14.55-13.52s-14.29,5.23-16.08,13.52h30.62Zm10.34,8.17H11.48c1.02,11.74,9.57,17.61,20.54,17.61,7.02,0,13.78-2.81,19.27-6.38l-3.57,12.37c-4.47,2.55-10.72,4.34-17.61,4.34C13.4,91.61,0,79.87,0,61.76c0-16.84,11.87-29.6,28.07-29.6s25.52,11.87,25.52,25.26c0,2.04-.26,4.08-.64,6.25"/><path class="cls-3" d="M68.14,33.3h11.74v57.03h-11.74V33.3Zm-1.28-20.93c0-3.95,3.19-7.14,7.15-7.14s7.27,3.19,7.27,7.14-3.19,7.15-7.27,7.15-7.15-3.06-7.15-7.15"/><path class="cls-3" d="M106.03,54.74c0,6.63,5.1,11.61,13.27,11.61s13.01-4.85,13.01-11.61-4.98-11.87-13.01-11.87-13.27,5.11-13.27,11.87m33.68,49.12c0-5.74-5.62-6.89-17.61-9.31-3.06-.64-5.61-1.28-7.78-1.91-8.04,3.32-11.48,6.76-11.48,11.1,0,5.61,6.64,9.95,18.76,9.95s18.12-4.34,18.12-9.83m11.23-.76c0,12.5-11.1,19.78-30.11,19.78s-29.22-7.4-29.22-18.25c0-6.51,4.21-11.86,14.03-16.07-2.81-2.17-3.7-4.6-3.7-7.15,0-3.06,1.66-5.74,4.98-8.29-7.91-3.57-12.12-10.59-12.12-18.5,0-13.14,10.97-21.31,25.9-21.31h26.29l4.08,9.44h-13.14l-.13,.13c3.32,2.94,5.74,7.15,5.74,12.63,0,11.1-8.81,20.03-23.99,20.03-1.15,0-2.3,0-3.32-.13-1.66,1.15-2.55,2.55-2.55,4.21,0,2.81,2.29,3.7,11.99,5.62,15.82,3.19,25.26,6.38,25.26,17.86"/><path class="cls-3" d="M212.19,52.44v37.9h-11.74V54.74c0-7.79-4.97-11.99-11.99-11.99-6.12,0-11.87,3.7-15.31,9.82v37.77h-11.74V0h11.74V41.09c4.85-5.74,11.1-8.93,18.5-8.93,11.36,0,20.54,7.66,20.54,20.29"/><path class="cls-3" d="M267.57,75.41l-2.04,12.38c-3.83,2.42-8.8,3.7-14.04,3.7-12.63,0-18.76-6.64-18.76-17.23v-30.62h-9.19v-3.96l17.74-16.2h3.32v9.83h22.84l-2.04,10.33h-20.8v28.84c0,5.1,2.93,8.29,8.04,8.29,5.48,0,10.46-2.04,14.93-5.36"/><path class="cls-3" d="M318.09,55.5c-.13-7.27-5.87-13.52-14.54-13.52s-14.29,5.23-16.08,13.52h30.62Zm10.34,8.17h-41.47c1.02,11.74,9.57,17.61,20.54,17.61,7.02,0,13.78-2.81,19.27-6.38l-3.57,12.37c-4.47,2.55-10.72,4.34-17.61,4.34-16.72,0-30.11-11.74-30.11-29.86,0-16.84,11.87-29.6,28.07-29.6s25.52,11.87,25.52,25.26c0,2.04-.25,4.08-.64,6.25"/><path class="cls-3" d="M382.53,55.5c-.13-7.27-5.87-13.52-14.55-13.52s-14.29,5.23-16.08,13.52h30.62Zm10.34,8.17h-41.47c1.02,11.74,9.57,17.61,20.54,17.61,7.02,0,13.78-2.81,19.27-6.38l-3.57,12.37c-4.47,2.55-10.72,4.34-17.61,4.34-16.72,0-30.11-11.74-30.11-29.86,0-16.84,11.87-29.6,28.07-29.6s25.52,11.87,25.52,25.26c0,2.04-.26,4.08-.64,6.25"/><path class="cls-3" d="M458.83,52.44v37.9h-11.74V54.74c0-7.79-4.97-11.99-11.99-11.99-5.99,0-11.87,3.7-15.31,9.82v37.77h-11.74V33.3h11.74v7.78c4.85-5.74,11.1-8.93,18.51-8.93,11.36,0,20.54,7.66,20.54,20.29"/><path class="cls-3" d="M515.86,41.98v-.38h-20.54c-16.59,0-21.18,1.15-23.48,10.46l-.26,1.27-1.28-.13,2.81-23.09h48.49l.13,.76-33.56,82.94h-10.59l38.28-71.84Z"/><path class="cls-3" d="M523.26,106.29c0-3.7,2.81-6.51,6.64-6.51,5.99,0,9.95,6.38,8.8,13.27,.13,0,3.44,.89,5.62,.89,8.55,0,16.33-8.29,16.33-19.78,0-12.5-7.66-20.93-19.14-20.93-3.83,0-7.4,1.02-10.72,2.17l-.38-.89c15.56-9.57,24.37-13.52,24.37-24.24,0-8.17-5.49-13.78-13.4-13.78-7.14,0-12.76,3.32-16.46,11.23l-.89-.38c5.1-11.61,13.27-19.14,24.12-19.14s18.37,7.15,18.37,16.08c0,10.59-9.57,15.7-18.5,20.54v.26c15.31-.13,23.99,10.21,23.99,22.45,0,14.55-13.78,28.46-32.02,28.46-10.46,0-16.72-4.72-16.72-9.7"/></g></svg>