<svg version="1.1" xmlns="http://www.w3.org/2000/svg" xmlns:xlink="http://www.w3.org/1999/xlink" xml:space="preserve" xmlns:serif="http://www.serif.com/" style="fill-rule:evenodd;clip-rule:evenodd;stroke-linejoin:round;stroke-miterlimit:2;" viewBox="158.48 210.87 643.23 138.13"><g><path d="M218,282.5l-46.6,0c1.1,13.2 10.8,19.8 23.1,19.8c7.9,0 15.5,-3.2 21.7,-7.2l-4,13.9c-5,2.9 -12,4.9 -19.8,4.9c-18.8,0 -33.9,-13.2 -33.9,-33.6c0,-18.9 13.3,-33.3 31.6,-33.3c17.6,0 28.7,13.3 28.7,28.4c-0.1,2.4 -0.4,4.7 -0.8,7.1Zm-11.6,-9.2c-0.1,-8.2 -6.6,-15.2 -16.4,-15.2c-9.3,0 -16.1,5.9 -18.1,15.2l34.5,0Z" style="fill-rule:nonzero;"/><path d="M233.7,224.8c-0,-4.4 3.6,-8 8,-8c4.6,0 8.2,3.6 8.2,8c-0,4.6 -3.6,8 -8.2,8c-4.5,0.1 -8,-3.4 -8,-8Zm1.4,23.6l13.2,0l-0,64.1l-13.2,0l-0,-64.1Z" style="fill-rule:nonzero;"/><path d="M328.2,326.8c0,14.1 -12.5,22.2 -33.8,22.2c-20.9,0 -32.8,-8.3 -32.8,-20.5c0,-7.3 4.7,-13.3 15.8,-18.1c-3.2,-2.4 -4.2,-5.2 -4.2,-8c0,-3.4 1.9,-6.5 5.6,-9.3c-8.9,-4 -13.6,-11.9 -13.6,-20.8c0,-14.8 12.3,-24 29.1,-24l29.5,0l4.6,10.6l-14.8,0l-0.1,0.1c3.7,3.3 6.5,8 6.5,14.2c0,12.5 -9.9,22.5 -27,22.5c-1.3,0 -2.6,0 -3.7,-0.1c-1.9,1.3 -2.9,2.9 -2.9,4.7c0,3.2 2.6,4.2 13.5,6.3c17.7,3.7 28.3,7.3 28.3,20.2Zm-12.6,0.9c0,-6.5 -6.3,-7.7 -19.8,-10.5c-3.4,-0.7 -6.3,-1.4 -8.7,-2.2c-9,3.7 -12.9,7.6 -12.9,12.5c0,6.3 7.5,11.2 21.1,11.2c13.5,0 20.3,-4.8 20.3,-11Zm-37.9,-55.2c-0,7.5 5.7,13.1 14.9,13.1c9,0 14.6,-5.4 14.6,-13.1c-0,-7.6 -5.6,-13.3 -14.6,-13.3c-9,0 -14.9,5.7 -14.9,13.3Z" style="fill-rule:nonzero;"/><path d="M397,269.9l0,42.6l-13.2,0l0,-40c0,-8.8 -5.6,-13.5 -13.5,-13.5c-6.9,0 -13.3,4.2 -17.2,11l0,42.5l-13.2,0l0,-101.6l13.2,0l0,46.2c5.5,-6.5 12.5,-10 20.8,-10c12.8,0 23.1,8.6 23.1,22.8Z" style="fill-rule:nonzero;"/><path d="M459.3,295.7l-2.3,13.9c-4.3,2.7 -9.9,4.2 -15.8,4.2c-14.2,0 -21.1,-7.5 -21.1,-19.4l0,-34.4l-10.3,0l0,-4.4l19.9,-18.2l3.7,0l0,11l25.7,0l-2.3,11.6l-23.4,0l0,32.4c0,5.7 3.3,9.3 9,9.3c6.3,0 11.9,-2.3 16.9,-6Z" style="fill-rule:nonzero;"/><path d="M527.7,282.5l-46.6,0c1.2,13.2 10.8,19.8 23.1,19.8c7.9,0 15.5,-3.2 21.7,-7.2l-4,13.9c-5,2.9 -12,4.9 -19.8,4.9c-18.8,0 -33.8,-13.2 -33.8,-33.6c0,-18.9 13.3,-33.3 31.6,-33.3c17.6,0 28.7,13.3 28.7,28.4c-0.2,2.4 -0.5,4.7 -0.9,7.1Zm-11.6,-9.2c-0.1,-8.2 -6.6,-15.2 -16.3,-15.2c-9.3,0 -16.1,5.9 -18.1,15.2l34.4,0Z" style="fill-rule:nonzero;"/><path d="M600.1,282.5l-46.6,0c1.1,13.2 10.8,19.8 23.1,19.8c7.9,0 15.5,-3.2 21.7,-7.2l-4,13.9c-5,2.9 -12,4.9 -19.8,4.9c-18.8,0 -33.9,-13.2 -33.9,-33.6c0,-18.9 13.3,-33.3 31.6,-33.3c17.6,0 28.7,13.3 28.7,28.4c-0.1,2.4 -0.3,4.7 -0.8,7.1Zm-11.6,-9.2c-0.1,-8.2 -6.6,-15.2 -16.4,-15.2c-9.3,0 -16.1,5.9 -18.1,15.2l34.5,0Z" style="fill-rule:nonzero;"/><path d="M674.3,269.9l-0,42.6l-13.2,0l-0,-40c-0,-8.8 -5.6,-13.5 -13.5,-13.5c-6.7,0 -13.3,4.2 -17.2,11l-0,42.5l-13.2,0l-0,-64.1l13.2,0l-0,8.7c5.5,-6.5 12.5,-10 20.8,-10c12.8,-0 23.1,8.6 23.1,22.8Z" style="fill-rule:nonzero;"/><path d="M738.4,258.1l0,-0.4l-23.1,0c-18.6,0 -23.8,1.3 -26.4,11.8l-0.3,1.4l-1.4,-0.1l3.2,-26l54.5,0l0.1,0.9l-37.7,93.2l-11.9,0l43,-80.8Z" style="fill-rule:nonzero;"/><path d="M746.7,330.4c0,-4.2 3.2,-7.3 7.5,-7.3c6.7,-0 11.2,7.2 9.9,14.9c0.1,-0 3.9,1 6.3,1c9.6,-0 18.4,-9.3 18.4,-22.2c0,-14.1 -8.6,-23.5 -21.5,-23.5c-4.3,-0 -8.3,1.1 -12,2.4l-0.4,-1c17.5,-10.8 27.4,-15.2 27.4,-27.3c0,-9.2 -6.2,-15.5 -15.1,-15.5c-8,-0 -14.3,3.7 -18.5,12.6l-1,-0.4c5.7,-13.1 14.9,-21.5 27.1,-21.5c12.2,-0 20.7,8 20.7,18.1c0,11.9 -10.8,17.6 -20.8,23.1l0,0.3c17.2,-0.1 27,11.5 27,25.2c0,16.4 -15.5,32 -36,32c-12,-0 -19,-5.3 -19,-10.9Z" style="fill-rule:nonzero;"/></g></svg>